<svg xmlns="http://www.w3.org/2000/svg" version="1.1" viewBox="-5.0 -10.0 110.0 135.0">
 <path d="m62.281 72.07-11-7.8516c-0.79297-0.55859-1.8516-0.55859-2.6406 0l-11 7.8516c-0.69141 0.49609-1.5977 0.5625-2.3555 0.17578-0.75391-0.38672-1.2266-1.168-1.2266-2.0156v-40.461c0-0.61328 0.24609-1.2031 0.6875-1.6328 0.44141-0.42969 1.0391-0.66016 1.6523-0.63672h27.203c0.59766 0 1.1758 0.23828 1.6016 0.66406 0.42188 0.42578 0.66016 1.0039 0.65625 1.6055v40.461c0.003906 0.84766-0.47266 1.6289-1.2266 2.0156-0.75391 0.38672-1.6641 0.32031-2.3516-0.17578z"/>
<text x="0.0" y="117.5" font-size="5.0" font-weight="bold" font-family="Arbeit Regular, Helvetica, Arial-Unicode, Arial, Sans-serif" fill="#000000">Created by hibernut</text><text x="0.0" y="122.5" font-size="5.0" font-weight="bold" font-family="Arbeit Regular, Helvetica, Arial-Unicode, Arial, Sans-serif" fill="#000000">from Noun Project</text></svg>