<svg xmlns="http://www.w3.org/2000/svg" data-name="Layer 1" viewBox="0 0 32 32" id="pencil"><path d="M30.4,24.328l-.005-.017a2.472,2.472,0,0,0-.192-.365c-.014-.023-.023-.049-.038-.072a2.523,2.523,0,0,0-.318-.389l-2.121-2.122h0l-1.487-1.487-.006-.009-.009-.006L11.465,5.1a.5.5,0,0,0-.167-.109l-.007,0L2.1,1.452a.5.5,0,0,0-.646.646l3.536,9.192,0,.007a.5.5,0,0,0,.109.167l14.76,14.76.006.009.009.006,1.487,1.487h0l2.122,2.121a2.522,2.522,0,0,0,.389.318c.022.015.047.023.07.037a2.472,2.472,0,0,0,.367.193l.019.006a2.476,2.476,0,0,0,1.851,0l.014,0a2.478,2.478,0,0,0,.368-.193c.022-.014.047-.022.068-.037a2.522,2.522,0,0,0,.389-.318l2.828-2.828a2.523,2.523,0,0,0,.318-.389c.015-.023.024-.048.038-.071a2.47,2.47,0,0,0,.192-.366l0-.014a2.477,2.477,0,0,0,0-1.853ZM11.611,6.661,25.171,20.222l-.706.706L12.054,8.516l0,0h0a1.489,1.489,0,0,1-.439-1.062Zm-.264,2.563L23.758,21.635l-2.123,2.123L9.224,11.347A1.5,1.5,0,0,1,8.78,10.28v-1a.5.5,0,0,1,.5-.5h1A1.5,1.5,0,0,1,11.347,9.224ZM2.789,2.789l1.677.645A2.666,2.666,0,0,1,3.432,4.462Zm1,2.6A3.654,3.654,0,0,0,5.4,3.792L10.611,5.8V7.451a2.517,2.517,0,0,0,.035.365,2.507,2.507,0,0,0-.366-.036h-1a1.5,1.5,0,0,0-1.5,1.5v1a2.507,2.507,0,0,0,.036.366,2.5,2.5,0,0,0-.362-.035H5.8Zm16.432,19.78L6.661,11.611h.792a1.49,1.49,0,0,1,1.06.439l0,0L20.928,24.465Zm.707.707,1.034-1.034c.01-.008.021-.011.031-.02s.012-.021.02-.031l2.779-2.779c.01-.008.021-.011.031-.02s.012-.021.02-.031l1.034-1.034.789.789-4.95,4.95Zm8.213.436-2.828,2.828a1.5,1.5,0,0,1-2.122,0l-1.768-1.768,4.95-4.95,1.768,1.768A1.5,1.5,0,0,1,29.142,26.314Z"></path></svg>