<?xml version="1.0" encoding="iso-8859-1"?>
<svg fill="#000000" height="800px" width="800px" version="1.1" id="Capa_1" xmlns="http://www.w3.org/2000/svg" xmlns:xlink="http://www.w3.org/1999/xlink" 
	 viewBox="0 0 465.311 465.311" xml:space="preserve">
<g>
	<path d="M372.811,51.002h-59.908V36.566C312.902,16.404,296.499,0,276.335,0h-87.356c-20.163,0-36.567,16.404-36.567,36.566v14.436
		H92.5c-20.726,0-37.587,16.861-37.587,37.587v38.91c0,8.284,6.716,15,15,15h7.728v307.812c0,8.284,6.716,15,15,15H372.67
		c8.284,0,15-6.716,15-15V142.499h7.728c8.284,0,15-6.716,15-15v-38.91C410.397,67.863,393.536,51.002,372.811,51.002z
		 M182.412,36.566c0-3.621,2.946-6.566,6.567-6.566h87.356c3.621,0,6.567,2.946,6.567,6.566v14.436h-100.49V36.566z M84.914,88.589
		c0-4.184,3.403-7.587,7.587-7.587h280.31c4.184,0,7.587,3.403,7.587,7.587v23.91H84.914V88.589z M357.67,435.311H107.641V142.499
		H357.67V435.311z"/>
	<path d="M137.41,413.485c5.523,0,10-4.477,10-10V166.497c0-5.523-4.477-10-10-10s-10,4.477-10,10v236.988
		C127.41,409.008,131.887,413.485,137.41,413.485z"/>
	<path d="M200.907,413.485c5.523,0,10-4.477,10-10V166.497c0-5.523-4.477-10-10-10s-10,4.477-10,10v236.988
		C190.907,409.008,195.384,413.485,200.907,413.485z"/>
	<path d="M264.404,413.485c5.523,0,10-4.477,10-10V166.497c0-5.523-4.477-10-10-10s-10,4.477-10,10v236.988
		C254.404,409.008,258.881,413.485,264.404,413.485z"/>
	<path d="M327.901,413.485c5.523,0,10-4.477,10-10V166.497c0-5.523-4.477-10-10-10s-10,4.477-10,10v236.988
		C317.901,409.008,322.378,413.485,327.901,413.485z"/>
</g>
</svg>